<?xml version="1.0" standalone="no"?>
<!DOCTYPE svg PUBLIC "-//W3C//DTD SVG 20010904//EN"
 "http://www.w3.org/TR/2001/REC-SVG-20010904/DTD/svg10.dtd">
<svg version="1.0" xmlns="http://www.w3.org/2000/svg"
 width="200.000000pt" height="200.000000pt" viewBox="0 0 200.000000 200.000000"
 preserveAspectRatio="xMidYMid meet">
<metadata>
Created by potrace 1.11, written by Peter Selinger 2001-2013
</metadata>
<g transform="translate(0.000000,200.000000) scale(0.100000,-0.100000)"
fill="#000000" stroke="none">
<path d="M0 1113 c0 -637 3 -884 11 -876 6 6 19 9 29 6 20 -5 32 -37 19 -50
-4 -4 -2 -28 5 -52 12 -43 13 -44 30 -25 33 36 93 119 99 137 4 9 15 20 24 23
10 4 52 19 93 35 83 32 280 89 308 89 9 0 32 17 50 37 l33 38 -29 -45 c-30
-46 -62 -127 -62 -159 0 -9 -7 -39 -17 -66 -11 -33 -13 -50 -5 -53 7 -2 6 -12
-4 -30 -19 -36 -19 -63 0 -37 13 18 14 17 20 -11 3 -16 5 -38 3 -49 -2 -20 5
-20 312 -23 348 -3 320 -8 383 71 45 57 47 56 13 -11 -29 -57 -30 -62 -12 -62
7 0 32 26 55 57 46 63 56 61 17 -2 -14 -22 -25 -43 -25 -47 0 -14 128 -9 134
5 5 9 7 9 12 0 4 -10 65 -13 255 -13 l249 0 0 1000 0 1000 -1000 0 -1000 0 0
-887z m530 -608 c7 -9 8 -15 2 -15 -5 0 -12 7 -16 15 -3 8 -4 15 -2 15 2 0 9
-7 16 -15z m-457 -212 c-7 -2 -21 -2 -30 0 -10 3 -4 5 12 5 17 0 24 -2 18 -5z
m1457 -38 c-7 -9 -15 -13 -17 -11 -7 7 7 26 19 26 6 0 6 -6 -2 -15z m50 -69
c0 -7 -7 -19 -15 -26 -16 -13 -20 -3 -9 24 8 20 24 21 24 2z m-400 -75 c0 -5
-5 -22 -11 -38 -6 -15 -10 -30 -9 -32 3 -8 -26 -21 -48 -21 -22 0 -22 1 -5 28
34 56 73 89 73 63z"/>
<path d="M336 39 c3 -44 14 -49 14 -6 0 21 -4 37 -8 37 -5 0 -7 -14 -6 -31z"/>
<path d="M182 20 c0 -14 2 -19 5 -12 2 6 2 18 0 25 -3 6 -5 1 -5 -13z"/>
<path d="M514 15 c-18 -14 -18 -14 9 -15 17 0 27 5 27 15 0 19 -11 19 -36 0z"/>
</g>
</svg>
