<?xml version="1.0" standalone="no"?>
<!DOCTYPE svg PUBLIC "-//W3C//DTD SVG 20010904//EN"
 "http://www.w3.org/TR/2001/REC-SVG-20010904/DTD/svg10.dtd">
<svg version="1.0" xmlns="http://www.w3.org/2000/svg"
 width="935.000000pt" height="935.000000pt" viewBox="0 0 935.000000 935.000000"
 preserveAspectRatio="xMidYMid meet">
<metadata>
Created by potrace 1.11, written by Peter Selinger 2001-2013
</metadata>
<g transform="translate(0.000000,935.000000) scale(0.100000,-0.100000)"
fill="#000000" stroke="none">
<path d="M8636 8548 c-3 -18 -12 -166 -21 -328 -18 -340 -32 -587 -75 -1325
-16 -291 -44 -766 -60 -1055 -17 -289 -44 -757 -60 -1040 -16 -283 -37 -634
-45 -780 -8 -146 -19 -344 -25 -440 -6 -96 -24 -407 -40 -690 -16 -283 -32
-563 -36 -622 -3 -60 -4 -108 0 -108 24 0 177 85 190 106 19 28 16 -29 86
1329 22 429 49 956 60 1170 11 215 47 912 80 1550 33 638 71 1370 85 1626 25
487 24 512 -15 562 -16 20 -101 77 -116 77 -2 0 -5 -15 -8 -32z"/>
<path d="M6590 8289 c-360 -4 -1154 -12 -1765 -18 -610 -6 -1265 -13 -1455
-16 -190 -3 -658 -8 -1040 -11 -752 -7 -734 -5 -793 -62 -39 -36 -53 -67 -61
-127 -3 -27 -27 -295 -51 -595 -25 -300 -52 -619 -60 -710 -8 -91 -31 -354
-50 -585 -20 -231 -46 -548 -60 -705 -13 -157 -54 -631 -90 -1055 -36 -423
-77 -900 -90 -1060 l-25 -289 22 -46 c18 -34 34 -50 68 -67 42 -20 74 -22 480
-37 239 -9 597 -23 795 -31 325 -13 871 -35 2390 -95 281 -11 670 -27 865 -35
1887 -77 1991 -80 2028 -59 20 10 44 31 55 46 24 32 24 35 102 988 30 371 75
923 100 1225 59 710 95 1152 145 1770 22 275 59 715 80 978 22 263 40 492 40
508 0 22 -10 41 -34 65 l-34 34 -454 -2 c-249 -1 -748 -5 -1108 -9z m-1920
-1265 c1048 -9 1906 -17 1907 -18 1 0 -7 -118 -18 -261 -10 -143 -55 -755 -99
-1360 -111 -1515 -128 -1747 -132 -1749 -2 -2 -489 12 -1083 30 -594 19 -1590
49 -2214 68 -623 19 -1136 37 -1139 40 -2 3 3 92 12 198 41 474 218 2547 236
2768 12 135 23 260 26 278 l5 32 297 -5 c163 -3 1154 -13 2202 -21z"/>
<path d="M3192 6539 c-78 -12 -109 -31 -121 -75 -17 -62 0 -87 72 -106 153
-40 306 -139 397 -256 25 -31 29 -32 300 -86 224 -45 277 -53 288 -42 10 10 5
27 -27 92 -51 101 -151 227 -238 299 -77 64 -217 135 -313 160 -79 20 -272 27
-358 14z"/>
<path d="M3290 5972 c0 -4 18 -25 39 -46 l39 -38 12 37 c7 20 10 38 8 39 -9 8
-98 15 -98 8z"/>
<path d="M2874 5900 c-107 -20 -107 -19 7 -93 99 -63 102 -66 69 -67 -33 0
-107 -14 -139 -26 -37 -13 136 -140 260 -192 41 -16 91 -33 112 -37 20 -4 37
-10 37 -14 -1 -3 -23 -16 -50 -29 -28 -13 -50 -28 -50 -32 0 -10 87 -37 135
-42 l30 -3 6 125 c6 107 32 255 64 366 6 19 0 22 -62 33 -87 16 -353 23 -419
11z"/>
<path d="M3710 5825 c-57 -18 -122 -73 -158 -133 -24 -42 -27 -57 -27 -137 0
-103 16 -144 82 -207 54 -52 115 -78 189 -78 117 0 210 54 262 154 22 43 27
64 27 131 0 70 -4 87 -30 133 -51 93 -130 143 -235 148 -39 2 -83 -2 -110 -11z
m160 -66 c99 -21 164 -108 164 -215 -1 -114 -76 -192 -201 -209 -41 -5 -61 -2
-99 15 -64 28 -82 45 -110 105 -42 88 -23 183 49 253 64 61 102 71 197 51z"/>
<path d="M5120 5709 c-85 -169 -131 -323 -155 -526 -17 -145 -11 -319 12 -328
8 -3 57 -10 108 -16 171 -20 409 17 619 98 99 37 320 148 337 169 14 16 -3 48
-79 150 -75 102 -206 234 -303 306 -100 75 -243 150 -354 186 -155 51 -139 54
-185 -39z"/>
<path d="M4507 5679 c-143 -22 -240 -133 -240 -279 -1 -250 293 -383 473 -214
85 79 116 184 86 287 -41 141 -174 227 -319 206z m141 -85 c83 -34 131 -110
132 -207 0 -77 -27 -129 -86 -167 -65 -41 -130 -53 -189 -36 -172 52 -212 266
-72 380 23 18 49 36 57 39 31 11 122 6 158 -9z"/>
<path d="M4590 5576 c0 -2 8 -10 18 -17 15 -13 16 -12 3 4 -13 16 -21 21 -21
13z"/>
<path d="M3225 5193 c-86 -27 -247 -36 -352 -20 -52 8 -53 7 -73 -25 -47 -78
-10 -132 143 -207 151 -75 235 -95 387 -95 145 0 222 16 346 74 86 40 215 122
199 126 -6 2 -120 22 -255 45 -135 23 -255 47 -267 55 -12 7 -24 27 -28 44 -4
16 -10 29 -13 29 -4 -1 -43 -13 -87 -26z"/>
<path d="M4035 2144 c25 -93 100 -378 168 -634 l123 -465 -580 -5 -580 -5 -42
-102 -42 -103 2034 0 2034 0 -21 53 c-12 28 -30 76 -41 105 l-21 52 -358 0
-358 0 -69 133 c-93 176 -358 690 -467 905 l-87 172 -57 0 c-32 0 -235 7 -452
15 -217 8 -529 19 -694 25 -165 5 -353 13 -417 16 l-117 6 44 -168z"/>
</g>
</svg>
